<?xml version="1.0" encoding="UTF-8"?>
<svg xmlns="http://www.w3.org/2000/svg" xmlns:xlink="http://www.w3.org/1999/xlink" width="40px" height="50px" viewBox="0 0 40 50" version="1.1">
<g id="surface1">
<path style=" stroke:none;fill-rule:nonzero;fill:rgb(100%,100%,100%);fill-opacity:1;" d="M 35.128906 8.132812 L 4.890625 8.132812 C 2.195312 8.132812 0 10.855469 0 14.207031 L 0 35.828125 C 0 39.175781 2.195312 41.902344 4.890625 41.902344 L 35.128906 41.902344 C 37.824219 41.902344 40.015625 39.175781 40.015625 35.828125 L 40.015625 14.207031 C 40.019531 10.855469 37.824219 8.132812 35.128906 8.132812 Z M 32.742188 12.09375 L 20.007812 22.292969 L 7.277344 12.09375 Z M 35.128906 37.9375 L 4.890625 37.9375 C 3.953125 37.9375 3.191406 36.992188 3.191406 35.828125 L 3.191406 14.320312 L 19.027344 26.980469 C 19.046875 26.996094 19.070312 27.007812 19.089844 27.023438 C 19.113281 27.039062 19.136719 27.054688 19.160156 27.066406 C 19.285156 27.144531 19.410156 27.210938 19.539062 27.25 C 19.550781 27.257812 19.566406 27.257812 19.578125 27.261719 C 19.722656 27.304688 19.863281 27.328125 20.007812 27.328125 C 20.011719 27.328125 20.011719 27.328125 20.011719 27.328125 C 20.15625 27.328125 20.296875 27.304688 20.441406 27.261719 C 20.453125 27.257812 20.46875 27.257812 20.480469 27.25 C 20.609375 27.210938 20.734375 27.144531 20.859375 27.066406 C 20.882812 27.054688 20.90625 27.039062 20.929688 27.023438 C 20.949219 27.007812 20.972656 26.996094 20.992188 26.980469 L 36.828125 14.320312 L 36.828125 35.828125 C 36.828125 36.992188 36.066406 37.9375 35.128906 37.9375 Z M 35.128906 37.9375 "/>
</g>
</svg>
